<svg id="Layer_1" data-name="Layer 1" xmlns="http://www.w3.org/2000/svg" viewBox="0 0 512 512"><title>github</title><g id="post_stamp" data-name="post stamp"><g id="border_stamp" data-name="border stamp"><path d="M420.78,512a26.73,26.73,0,0,0-48.69,0h-7.81a26.74,26.74,0,0,0-48.7,0H307.8a26.74,26.74,0,0,0-48.7,0H251.3a26.74,26.74,0,0,0-48.7,0h-7.79a26.74,26.74,0,0,0-48.7,0h-7.79a26.75,26.75,0,0,0-48.71,0H81.82a26.74,26.74,0,0,0-48.69,0H0V493a25.29,25.29,0,0,0,15-23.2,25.3,25.3,0,0,0-15-23.2v-6.94a25.28,25.28,0,0,0,15-23.2A25.27,25.27,0,0,0,0,393.29v-7a25.28,25.28,0,0,0,15-23.2A25.29,25.29,0,0,0,0,340v-7.6a25,25,0,0,0,15-22.81,25.08,25.08,0,0,0-15-23v-7.79a25,25,0,0,0,15-22.66A25.14,25.14,0,0,0,0,233.22v-7.79a25,25,0,0,0,15-22.81,25.08,25.08,0,0,0-15-23V172a25.29,25.29,0,0,0,15-23.19,25.28,25.28,0,0,0-15-23.2v-7A25.27,25.27,0,0,0,15,95.51,25.28,25.28,0,0,0,0,72.32V65.37a25.29,25.29,0,0,0,15-23.2A25.29,25.29,0,0,0,0,19V0H33.13A26.47,26.47,0,0,0,57.47,15.69,26.46,26.46,0,0,0,81.82,0h7.79A26.48,26.48,0,0,0,114,15.69,26.49,26.49,0,0,0,138.32,0h7.79a26.48,26.48,0,0,0,24.35,15.69A26.45,26.45,0,0,0,194.81,0h7.79A26.49,26.49,0,0,0,227,15.69,26.45,26.45,0,0,0,251.3,0h7.81a26.45,26.45,0,0,0,24.35,15.69A26.48,26.48,0,0,0,307.8,0h7.79a26.48,26.48,0,0,0,24.35,15.69A26.43,26.43,0,0,0,364.29,0h7.81a26.49,26.49,0,0,0,24.36,15.69A26.45,26.45,0,0,0,420.78,0h7.81a26.45,26.45,0,0,0,24.35,15.69A26.45,26.45,0,0,0,477.28,0H512V19a25.46,25.46,0,0,0,0,46.39v6.94a25.46,25.46,0,0,0,0,46.39v7A25.46,25.46,0,0,0,512,172v7.6a25,25,0,0,0,0,45.79v7.79a25.06,25.06,0,0,0-15,22.67c.24,10.35,6.18,19.16,15,22.89v7.79a25,25,0,0,0,0,45.79V340a25.45,25.45,0,0,0,0,46.39v7a25.46,25.46,0,0,0,0,46.39v6.94A25.46,25.46,0,0,0,512,493v19H477.28a26.74,26.74,0,0,0-48.7,0Z" fill="rgba(198,185,155,0)"/></g><path id="inner_color_stamp" data-name="inner color stamp" d="M481.3,505.34a33.5,33.5,0,0,0-56.61-.18,33.5,33.5,0,0,0-56.49,0,33.5,33.5,0,0,0-56.5,0,33.5,33.5,0,0,0-56.49,0,33.5,33.5,0,0,0-56.49,0,33.51,33.51,0,0,0-56.5,0,33.5,33.5,0,0,0-56.49,0,33.5,33.5,0,0,0-56.61.19H6.65V497a32.16,32.16,0,0,0,15-27.2A32.19,32.19,0,0,0,7.46,443.15a32.17,32.17,0,0,0,14.16-26.67A32.17,32.17,0,0,0,7.46,389.82a32.18,32.18,0,0,0,14.16-26.67A32.16,32.16,0,0,0,7,336.17a31.82,31.82,0,0,0,14.62-26.53v-.38a31.81,31.81,0,0,0-14.74-26.6,31.87,31.87,0,0,0,14.74-26.41v-.51A31.87,31.87,0,0,0,6.87,229.33a31.83,31.83,0,0,0,14.74-26.61v-.37A31.83,31.83,0,0,0,7,175.83a32.17,32.17,0,0,0,14.63-27A32.19,32.19,0,0,0,7.46,122.18,32.17,32.17,0,0,0,21.62,95.51,32.18,32.18,0,0,0,7.46,68.85,32.19,32.19,0,0,0,21.62,42.18,32.15,32.15,0,0,0,6.65,15V6.66H29.11A33.39,33.39,0,0,0,57.47,22.34,33.4,33.4,0,0,0,85.72,6.86,33.43,33.43,0,0,0,114,22.34,33.39,33.39,0,0,0,142.21,6.84a33.41,33.41,0,0,0,28.25,15.49A33.41,33.41,0,0,0,198.71,6.86,33.41,33.41,0,0,0,227,22.34,33.39,33.39,0,0,0,255.2,6.84a33.39,33.39,0,0,0,28.25,15.49A33.39,33.39,0,0,0,311.69,6.84a33.39,33.39,0,0,0,28.25,15.49A33.37,33.37,0,0,0,368.19,6.84a33.41,33.41,0,0,0,28.26,15.49A33.4,33.4,0,0,0,424.68,6.84a33.4,33.4,0,0,0,28.25,15.49A33.41,33.41,0,0,0,481.31,6.66h24V15a32.2,32.2,0,0,0-.82,53.87,32.2,32.2,0,0,0,0,53.33,32.2,32.2,0,0,0,.47,53.65,31.87,31.87,0,0,0-14.61,26.52v.39a31.88,31.88,0,0,0,14.73,26.6,31.89,31.89,0,0,0-14.72,26.41v.52a31.9,31.9,0,0,0,14.72,26.41,31.86,31.86,0,0,0-14.73,26.6v.38A31.85,31.85,0,0,0,505,336.17a32.2,32.2,0,0,0-.47,53.64,32.2,32.2,0,0,0,0,53.34,32.2,32.2,0,0,0,.82,53.87v8.32Z" fill="#f9ecce"/><g id="inner_color" data-name="inner color"><rect x="47.02" y="47.02" width="417.96" height="417.96" fill="rgb(85,85,85)"/></g><path id="inner_border" data-name="inner border" d="M466.28,466.28H45.71V45.72H466.28V466.28Zm-418-2.61H463.68V48.33H48.33V463.67Z" fill="#d9c7b2"/></g><g id="Github"><path d="M256,126.07A133.24,133.24,0,0,0,213.88,385.7c6.66,1.23,9.11-2.89,9.11-6.41,0-3.18-.12-13.67-.19-24.81-37.06,8.06-44.88-15.72-44.88-15.72-6.06-15.4-14.79-19.49-14.79-19.49-12.09-8.27.91-8.1.91-8.1,13.38.94,20.42,13.73,20.42,13.73,11.88,20.36,31.17,14.48,38.77,11.07,1.2-8.6,4.65-14.48,8.46-17.81C202.1,314.8,171,303.38,171,252.33a51.53,51.53,0,0,1,13.73-35.76c-1.38-3.36-5.95-16.91,1.29-35.26,0,0,11.19-3.57,36.65,13.66a126.28,126.28,0,0,1,66.72,0c25.43-17.24,36.6-13.66,36.6-13.66,7.25,18.35,2.69,31.9,1.31,35.26A51.44,51.44,0,0,1,341,252.33c0,51.17-31.17,62.43-60.83,65.73,4.78,4.13,9,12.24,9,24.67,0,17.82-.15,32.17-.15,36.56,0,3.55,2.4,7.7,9.15,6.39A133.24,133.24,0,0,0,256,126.07Z" fill="#f9ecce" fill-rule="evenodd"/><path d="M173.24,317.35c-.3.66-1.34.86-2.29.41s-1.51-1.34-1.19-2,1.33-.87,2.29-.41,1.52,1.34,1.19,2Zm-1.64-1.22" fill="#f9ecce"/><path d="M178.63,323.37c-.63.59-1.88.31-2.72-.62s-1-2.17-.39-2.77,1.86-.31,2.73.62,1,2.17.38,2.77ZM177.36,322" fill="#f9ecce"/><path d="M183.88,331c-.82.57-2.15,0-3-1.15s-.82-2.61,0-3.17,2.14-.06,3,1.12.81,2.63,0,3.21Zm0,0" fill="#f9ecce"/><path d="M191.08,338.45c-.72.81-2.28.59-3.42-.51s-1.49-2.6-.76-3.41,2.31-.58,3.46.51,1.51,2.61.72,3.4Zm0,0" fill="#f9ecce"/><path d="M201,342.75c-.32,1-1.82,1.52-3.33,1.07s-2.49-1.68-2.19-2.73,1.82-1.54,3.34-1.07,2.49,1.66,2.18,2.73Zm0,0" fill="#f9ecce"/><path d="M211.91,343.55c0,1.1-1.24,2-2.82,2s-2.89-.86-2.9-1.94,1.25-2,2.84-2,2.88.86,2.88,1.94Zm0,0" fill="#f9ecce"/><path d="M222.06,341.82c.19,1.07-.91,2.17-2.48,2.47s-3-.38-3.18-1.44.93-2.2,2.47-2.48,3,.37,3.19,1.46Zm0,0" fill="#f9ecce"/></g></svg>