<svg id="Layer_1" data-name="Layer 1" xmlns="http://www.w3.org/2000/svg" viewBox="0 0 512 512"><defs><style>.cls-1{fill:#141f38;}</style></defs><title>galaxy_style_2</title><path class="cls-1" d="M116.82,455.87a12.8,12.8,0,0,1-18,2.24A254.55,254.55,0,0,1,0,256a257.71,257.71,0,0,1,5.68-53.89,12.8,12.8,0,1,1,25,5.36A232.13,232.13,0,0,0,25.6,256a229.11,229.11,0,0,0,89,181.91A12.8,12.8,0,0,1,116.82,455.87Zm392-240.29a12.8,12.8,0,0,0-25.29,4A232.59,232.59,0,0,1,486.4,256C486.4,383,383,486.4,256,486.4A228.35,228.35,0,0,1,159,465a12.8,12.8,0,0,0-10.8,23.21A253.85,253.85,0,0,0,256,512c141.16,0,256-114.84,256-256A258.7,258.7,0,0,0,508.82,215.58ZM134.75,60A229.86,229.86,0,0,1,256,25.6c87.81,0,166.81,48.81,206.15,127.39A12.8,12.8,0,1,0,485,141.53C441.33,54.23,353.57,0,256,0A255.42,255.42,0,0,0,121.25,38.29,12.8,12.8,0,1,0,134.75,60ZM32.67,158.72A12.8,12.8,0,0,0,49.84,153a230.84,230.84,0,0,1,27.51-42.52A12.8,12.8,0,1,0,57.52,94.31a256.5,256.5,0,0,0-30.57,47.23A12.8,12.8,0,0,0,32.67,158.72ZM358.4,192a38.4,38.4,0,1,1,38.4-38.4A38.41,38.41,0,0,1,358.4,192Zm12.8-38.4a12.8,12.8,0,1,0-12.8,12.8A12.81,12.81,0,0,0,371.2,153.6ZM257,421.84A12.8,12.8,0,1,0,255,396.33C172.21,403,102.4,337.52,102.4,256S172.2,108.95,255,115.68A12.8,12.8,0,1,0,257,90.17c-4.62-.38-9.28-.57-13.84-.57C151.45,89.6,76.8,164.24,76.8,256s74.65,166.41,166.4,166.41C247.77,422.41,252.42,422.21,257,421.84Zm63-20a12.74,12.74,0,0,0,6.4-1.72,166.8,166.8,0,0,0,40.82-33.19,12.8,12.8,0,0,0-19.08-17.08A141.36,141.36,0,0,1,313.59,378,12.8,12.8,0,0,0,320,401.86ZM192,256a12.8,12.8,0,1,0-25.6,0,76.89,76.89,0,0,0,76.8,76.8,12.8,12.8,0,0,0,0-25.6A51.26,51.26,0,0,1,192,256Zm102.4,0a12.8,12.8,0,0,0,25.6,0,76.84,76.84,0,0,0-107.53-70.41,12.8,12.8,0,0,0,10.25,23.46A51.23,51.23,0,0,1,294.4,256Zm108.8,38.4A19.2,19.2,0,1,0,384,275.2,19.2,19.2,0,0,0,403.2,294.4Zm89.6,179.2A19.2,19.2,0,1,0,512,492.8,19.2,19.2,0,0,0,492.8,473.6ZM19.2,38.4A19.2,19.2,0,1,0,0,19.2,19.2,19.2,0,0,0,19.2,38.4Z"/></svg>