<svg xmlns="http://www.w3.org/2000/svg" viewBox="125 90 750 210" width="100%"><g id="Layer_1"><path fill="#300d4f" d="M327.7 256.6V133.5c0-1.3 1-2.3 2.3-2.3h35.8c22.7 0 36.8 13.5 36.8 36.1s-16 37-37 37h-19.1c-.6 0-1.2.5-1.2 1.2v51.2c0 1.3-1 2.3-2.3 2.3h-13c-1.2 0-2.3-1.1-2.3-2.4zm38.2-67.4c12 0 18.8-10.2 18.8-21.8 0-12-6.2-21.1-18.8-21.1h-19.3c-.6 0-1.2.5-1.2 1.2V188c0 .6.5 1.2 1.2 1.2h19.3z" class="st2"></path><path fill="#300d4f" d="M480.8 131.1h13c1.3 0 2.3 1 2.3 2.3v93c0 21.1-16.9 34-36.7 34-19.4 0-36.3-13-36.3-34v-93c0-1.3 1-2.3 2.3-2.3h12.8c1.3 0 2.3 1 2.3 2.3V226c0 11.5 8.6 18.8 18.8 18.8 10.2 0 19-7.3 19-18.8v-92.6c.2-1.2 1.2-2.3 2.5-2.3z" class="st2"></path><path fill="#300d4f" d="M539.9 194.3c-12.4-8.5-20.7-18-20.7-32.3 0-20.5 16.9-32.3 36.1-32.3 18.1 0 34 10.3 34.9 36.3 0 1.3-1 2.5-2.3 2.5H576c-1.2 0-2.3-1-2.3-2.2-.8-14.1-9.1-20.9-19.5-20.9-10 0-17.5 6-17.5 15.6 0 8.3 4.9 12.8 17.7 22l17.9 13.2c12.4 9.2 19.4 17.5 19.4 30.6 0 21.2-17.1 33.8-37.2 33.8-19 0-34-10.6-35.6-36.6-.1-1.4 1-2.5 2.3-2.5h12.1c1.2 0 2.2 1 2.3 2.2 1.1 14.5 9.6 21.2 19.6 21.2 9.6 0 18.6-5.3 18.6-17.7 0-7.7-3.4-11.5-13.2-18.2l-20.7-14.7z" class="st2"></path><path fill="#300d4f" d="M670.5 256.6v-53.8c0-.6-.5-1.2-1.2-1.2H634c-.6 0-1.2.5-1.2 1.2v53.8c0 1.3-1 2.3-2.3 2.3h-13c-1.3 0-2.3-1-2.3-2.3V133.5c0-1.3 1-2.3 2.3-2.3h13c1.3 0 2.3 1 2.3 2.3v51.4c0 .6.5 1.2 1.2 1.2h35.3c.6 0 1.2-.5 1.2-1.2v-51.4c0-1.3 1-2.3 2.3-2.3h13c1.3 0 2.3 1 2.3 2.3v123.2c0 1.3-1 2.3-2.3 2.3h-13c-1.3 0-2.3-1.1-2.3-2.4z" class="st2"></path><path fill="#300d4f" d="M713 256.6V133.5c0-1.3 1-2.3 2.3-2.3h63.6c1.3 0 2.3 1 2.3 2.3v10.7c0 1.3-1 2.3-2.3 2.3h-47.1c-.6 0-1.2.5-1.2 1.2v37.7c0 .6.5 1.2 1.2 1.2h32.4c1.3 0 2.3 1 2.3 2.3v10.7c0 1.3-1 2.3-2.3 2.3h-32.4c-.6 0-1.2.5-1.2 1.2v39.2c0 .6.5 1.2 1.2 1.2h47.1c1.3 0 2.3 1.1 2.3 2.3v10.7c0 1.3-1.1 2.3-2.3 2.3h-63.6c-1.3.2-2.3-.9-2.3-2.2z" class="st2"></path><path fill="#300d4f" d="M855.5 256.6l-19.2-53.5c-.2-.5-.6-.8-1.1-.8h-17.8c-.6 0-1.2.5-1.2 1.2v53.1c0 1.3-1 2.3-2.3 2.3h-13c-1.3 0-2.3-1-2.3-2.3V133.5c0-1.3 1-2.3 2.3-2.3h35.6c21.8 0 36.8 14.1 36.8 35 0 13.9-7.2 25.5-20.4 32.3-.3.1-.4.4-.3.7l21.7 56.7c.6 1.5-.5 3.2-2.2 3.2h-13.5c-1.2-.1-2.6-1.1-3.1-2.5zm-20.4-68.9c10.5 0 19.9-7.5 19.9-20.7 0-11.8-7.5-20.7-19.9-20.7h-17.7c-.6 0-1.1.5-1.1 1.1v39c0 .6.5 1.2 1.2 1.2h17.6z" class="st2"></path><path fill="#300d4f" d="M262.1 146.2v-13.1c0-.2-.1-.4-.3-.5l-65-37.5c-.2-.1-.4-.1-.6 0l-10.8 6.2c-.4.2-.4.8 0 1l63.8 36.8c.4.2.4.8 0 1l-13.6 7.9c-.2.1-.4.1-.6 0l-65-37.5c-.2-.1-.4-.1-.6 0l-10.8 6.2c-.4.2-.4.8 0 1l63.8 36.8c.4.2.4.8 0 1l-13.6 7.9c-.2.1-.4.1-.6 0l-65-37.5c-.2-.1-.4-.1-.6 0l-11.4 6.6c-.2.1-.3.3-.3.5v124.4c0 .2.1.4.3.5l10.8 6.2c.4.2.9-.1.9-.5v-123c0-.5.5-.7.9-.5l13.6 7.9c.2.1.3.3.3.5v124.4c0 .2.1.4.3.5l10.8 6.2c.4.2.9-.1.9-.5v-123c0-.5.5-.7.9-.5l13.6 7.9c.2.1.3.3.3.5v124.4c0 .2.1.4.3.5l10.8 6.2c.4.2.9-.1.9-.5v-48c0-.2.1-.4.3-.5l65-37.5c.2-.1.3-.3.3-.5v-12.5c0-.5-.5-.7-.9-.5L197.4 232c-.4.2-.9-.1-.9-.5v-15.8c0-.2.1-.4.3-.5l65-37.5c.2-.1.3-.3.3-.5v-12.5c0-.5-.5-.7-.9-.5L197.4 201c-.4.2-.9-.1-.9-.5v-15.8c0-.2.1-.4.3-.5l65-37.5c.2-.1.3-.2.3-.5zm-65.6 24.4z" class="st2"></path></g></svg>